<svg width="40" height="40" viewBox="0 0 40 40" fill="none" xmlns="http://www.w3.org/2000/svg">
<path d="M10.7977 14.5922C10.4207 14.7461 10.0379 14.8874 9.66789 15.0567C8.97567 15.3733 9.00113 15.2063 8.72907 14.6649C8.40102 14.8107 8.07051 14.9576 7.74 15.1045C7.71061 15.0555 7.68122 15.0065 7.65183 14.9575C8.0191 14.6867 8.36389 14.3758 8.75834 14.1535C9.57146 13.6953 10.4047 13.2713 11.2434 12.8614C11.5206 12.7259 11.8367 12.6628 12.1414 12.5954C12.2487 12.5716 12.4121 12.5935 12.4865 12.6629C12.9683 13.1124 13.3891 12.7366 13.8169 12.5758C14.4254 12.3471 15.0085 12.0315 15.6326 11.8714C15.9836 11.7814 16.3953 11.9294 16.8324 11.9758C16.6527 11.8465 16.5084 11.7427 16.3641 11.6388C16.3745 11.6071 16.385 11.5753 16.3954 11.5435C16.7894 11.5691 17.1937 11.5468 17.5755 11.6292C18.721 11.8764 19.8683 12.127 20.9949 12.4473C22.1014 12.7618 23.152 13.2538 24.0935 13.9104C25.212 14.6904 26.2224 15.5999 27.0247 16.7327C28.0742 18.2146 28.9019 19.805 29.1935 21.5976C29.4094 22.9241 29.4506 24.2727 29.2528 25.6354C29.0917 26.7446 28.8145 27.804 28.3892 28.8214C27.9919 29.7715 27.4625 30.6664 26.7816 31.4434C26.235 32.0671 25.647 32.6626 25.0224 33.2072C24.1398 33.9767 23.1364 34.5779 22.0435 35.0004C21.3353 35.2742 20.6049 35.4964 19.873 35.7005C19.4782 35.8106 19.0613 35.8594 18.6509 35.8913C17.774 35.9594 16.9018 35.9552 16.0194 35.8531C15.1441 35.7519 14.309 35.5226 13.4632 35.3124C13.0653 35.2136 12.6387 35.2014 12.2622 35.0543C11.863 34.8983 11.5091 34.6265 11.1324 34.4106C11.0292 34.3515 10.915 34.2698 10.8058 34.2697C10.0278 34.2685 9.46255 33.8159 8.91349 33.3611C8.34182 32.8876 7.78956 32.3858 7.26784 31.8577C6.83038 31.4148 6.44909 30.9161 6.04293 30.4421C6.06515 30.4084 6.08739 30.3747 6.10961 30.341C6.21417 30.3797 6.31872 30.4184 6.49447 30.4834C6.45839 30.0386 6.39704 29.6243 6.39952 29.2104C6.40172 28.8424 6.45077 28.4694 6.53034 28.11C6.55553 27.9962 6.73339 27.863 6.86222 27.835C7.39851 27.7183 7.93841 27.7214 8.41461 28.0417C8.93394 28.3911 9.48876 28.414 10.0835 28.3326C10.8429 28.2287 11.287 27.7413 11.7115 27.1634C12.0885 26.6502 12.3886 26.0611 13.0032 25.7458C13.7849 25.3447 14.6027 25.1666 15.4537 25.3657C15.8876 25.4672 16.3277 25.6663 16.6866 25.929C16.9967 26.156 17.1958 26.5355 17.4731 26.8841C17.9571 26.7103 18.5525 26.4947 19.1493 26.283C19.3884 26.1983 19.4731 26.0451 19.398 25.7976C19.3249 25.5568 19.3313 25.2324 19.1731 25.0964C19.0569 24.9964 18.7287 25.1283 18.4998 25.1788C17.6552 25.3651 16.8607 25.1819 16.0759 24.8792C15.2726 24.5694 14.4545 24.3596 13.5849 24.5774C12.9165 24.7448 12.3887 25.119 11.9761 25.6643C11.6749 26.0623 11.4099 26.4934 11.0716 26.8561C10.6095 27.3517 10.0523 27.8004 9.34818 27.7568C8.86103 27.7267 8.39479 27.436 7.90733 27.3069C7.50947 27.2014 7.08969 27.0901 6.68754 27.1142C6.25715 27.14 6.12418 27.4166 6.12859 28.0473C6.13229 28.5765 6.17533 29.1054 6.19647 29.6346C6.20026 29.7294 6.18225 29.8251 6.17247 29.9424C5.71295 29.8787 5.4608 29.5588 5.32362 29.2114C4.94232 28.2458 4.60404 27.2622 4.27943 26.2755C4.17483 25.9576 4.43862 25.6947 4.75017 25.7811C4.99028 25.8477 5.23106 25.956 5.43557 26.0979C5.79552 26.3477 6.07231 26.3996 6.38851 26.1132C6.61521 25.9078 6.78825 25.6318 6.94705 25.3645C7.24388 24.8649 7.46741 24.3152 7.8078 23.8498C8.08725 23.4678 8.52764 23.2016 9.01604 23.176C9.70483 23.14 10.3584 23.1687 11.0214 23.5614C11.4772 23.8314 12.1504 23.8092 12.7221 23.7894C13.836 23.7506 14.5549 22.9777 15.319 22.2747C15.9908 21.6566 16.6438 20.9783 17.5471 20.6848C18.6649 20.3216 19.6731 20.5408 20.5352 21.3487C20.7813 21.5794 20.8733 21.8815 20.914 22.2301C21.054 23.4274 20.4633 24.2113 19.5368 24.8221C19.6259 25.2131 19.713 25.5951 19.8068 26.0067C20.1584 25.8733 20.4732 25.7506 20.7903 25.6344C21.0741 25.5304 21.2636 25.3783 21.3741 25.057C21.4423 24.8583 21.7114 24.6671 21.9299 24.5976C22.2247 24.5037 22.5602 24.5853 22.7477 24.8647C22.9011 25.0933 23.0467 25.119 23.299 25.0617C23.8891 24.9277 24.4894 24.8397 25.0842 24.7257C25.2718 24.6897 25.5136 24.6447 25.4897 24.407C25.4753 24.2647 25.3188 24.1094 25.188 24.0109C24.4736 23.4728 23.7456 22.9531 23.0259 22.4221C22.3895 21.9526 21.7261 21.5132 21.1331 20.9934C20.518 20.4542 19.7896 20.1287 19.0422 19.9541C18.0945 19.7328 17.1046 19.7915 16.2902 20.4619C15.5344 21.084 14.8286 21.7682 14.0636 22.3781C13.1129 23.1362 12.0458 23.2294 10.9424 22.7431C10.1268 22.3837 9.28702 22.2999 8.44253 22.532C7.8595 22.6923 7.59725 23.2446 7.33047 23.7328C6.99242 24.3513 6.67106 24.9736 6.12264 25.4399C5.82009 25.6972 5.25043 25.6821 4.90371 25.4005C4.73314 25.262 4.56528 25.1202 4.36632 24.955C4.31049 25.1162 4.26264 25.2544 4.18389 25.4818C4.09607 24.9599 3.8756 24.5775 4.09283 24.0853C4.43382 23.3128 4.65556 22.4883 4.96316 21.6997C5.2763 20.8969 6.19055 20.7129 6.83059 21.2875C7.37108 21.7728 8.28835 21.7462 8.86894 21.2625C9.61686 20.6393 10.338 19.9838 11.0793 19.3525C11.6395 18.8753 12.3056 18.5601 13.0272 18.571C13.646 18.5803 14.2582 18.8161 14.8798 18.907C15.5899 19.011 16.3064 19.1069 17.0216 19.1192C17.2727 19.1235 17.5587 18.9063 17.7745 18.7251C18.0988 18.4528 18.3728 18.1206 18.6729 17.8185C19.0792 17.4095 19.4153 16.9353 19.9638 16.6686C20.5594 16.3789 21.1347 16.4118 21.769 16.6316C21.8405 16.6588 21.8737 16.6623 21.907 16.6658C21.8867 16.6301 21.8664 16.5945 21.8461 16.5588C21.3025 15.9791 20.1419 15.7232 19.4611 16.1224C19.1197 16.3225 18.8159 16.6616 18.6106 17.0069C17.9619 18.0976 17.0009 18.5813 15.7795 18.5308C15.2809 18.5102 14.7717 18.3717 14.2977 18.2017C12.9114 17.7045 11.7427 18.0267 10.6731 18.9976C9.97991 19.6269 9.35831 20.3557 8.48012 20.7575C7.89876 21.0234 7.3793 21.0577 6.87957 20.5281C6.26364 19.8754 5.3185 20.3304 5.08411 20.9154C4.81465 21.5879 4.5656 22.2686 4.3008 22.943C4.24772 23.0782 4.16371 23.2012 4.06387 23.3853C3.80733 22.567 4.51655 19.6489 5.13607 18.8507C5.20917 19.0823 5.27508 19.2912 5.3638 19.5724C5.55163 19.4897 5.75555 19.4534 5.88365 19.3347C6.54844 18.7188 7.1861 18.0735 7.8481 17.4544C8.63103 16.7223 9.47148 16.6655 10.2834 16.9784C10.6613 17.1239 11.0467 17.2943 11.4419 17.3404C12.1653 17.4248 12.7387 17.0314 13.29 16.6139C13.9287 16.1301 14.5542 15.6227 15.2295 15.1957C15.8693 14.7912 16.6065 14.9209 17.3008 15.0466C17.9703 15.1678 18.6171 15.4039 19.3161 15.3495C19.5788 15.3291 19.7694 15.2459 19.8536 14.9962C19.9578 14.6872 20.0702 14.3765 20.1271 14.0572C20.1866 13.7225 20.3219 13.4917 20.664 13.4073C20.7175 13.394 20.762 13.3441 20.8266 13.3002C20.7114 13.2389 20.6213 13.1782 20.5224 13.1406C20.1155 12.9858 19.891 13.1109 19.7849 13.5419C19.7214 13.7999 19.6849 14.0692 19.5859 14.3128C19.3323 14.9368 18.8425 15.0671 18.1576 14.9296C17.3835 14.7742 16.6309 14.5478 15.8185 14.5798C15.3009 14.6001 14.9089 14.8335 14.5245 15.089C13.9789 15.4516 13.4982 15.913 12.9496 16.27C12.2529 16.7232 11.5098 16.8852 10.6852 16.5297C9.49204 16.0151 8.8197 16.1715 7.82129 17.1097C7.35691 17.546 6.91729 18.009 6.46893 18.4624C6.17309 18.7615 5.80948 18.7931 5.39814 18.758C5.34893 18.1194 5.52696 17.5726 5.91002 17.0855C6.2637 16.6357 6.62528 16.1917 6.96447 15.7311C7.37965 15.1674 8.18117 14.953 8.64798 15.6109C8.69833 15.6819 8.86656 15.7283 8.95592 15.7024C9.6489 15.5011 10.2666 15.1523 10.8565 14.6536C11.0281 14.5304 11.163 14.4417 11.3157 14.3389C11.3813 14.2939 11.4293 14.263 11.5064 14.2281C11.5787 14.1863 11.6218 14.1484 11.6649 14.1104C11.6499 14.0923 11.6349 14.0742 11.6199 14.0561C11.5542 14.0951 11.4885 14.1341 11.405 14.1871C11.3393 14.2322 11.2914 14.2633 11.2179 14.2974C11.0608 14.3977 10.9293 14.495 10.7977 14.5922ZM11.9361 13.9464C12.4467 13.7389 12.9682 13.5589 13.5276 13.6362C13.9579 13.6957 14.3832 13.7959 14.808 13.8907C15.4404 14.0319 16.3674 13.7729 16.6705 13.1302C16.8627 12.7226 17.1674 12.5127 17.581 12.4007C16.9901 12.201 16.7277 12.5888 16.4365 12.9696C16.0255 13.5069 15.4939 13.7906 14.7762 13.5437C13.7404 13.1874 12.7543 13.3075 11.779 13.9296C11.7366 13.9675 11.6943 14.0053 11.6519 14.0432C11.6668 14.0612 11.6816 14.0792 11.6964 14.0972C11.7618 14.0582 11.8272 14.0191 11.9361 13.9464ZM22.3738 16.4118C22.3164 16.4043 22.2591 16.3968 22.1419 16.3814C22.2425 16.4479 22.2904 16.4797 22.3706 16.5484C22.5269 16.7224 22.6831 16.8965 22.8533 17.0861C23.6922 16.6677 24.4882 16.2706 25.3083 15.8615C24.4811 14.9542 23.5356 14.3149 22.5826 13.6738C22.2484 13.449 22.1132 13.4883 21.9716 13.7365C22.3427 14.0433 22.7306 14.3004 23.0361 14.6334C23.3768 15.0049 23.6713 15.4423 23.4958 15.9999C23.4511 16.1418 23.3434 16.3356 23.2265 16.3683C22.9618 16.4423 22.6734 16.4308 22.3738 16.4118ZM15.3229 34.6588C15.1979 34.6259 15.0745 34.5828 14.9475 34.5621C14.6053 34.5064 14.272 34.4165 14.0974 34.0891C13.9689 33.8481 14.1057 33.2715 14.2829 33.1211C14.6659 32.796 14.9366 32.765 15.346 32.9993C15.7989 33.2585 16.5704 32.8277 16.6033 32.3148C16.6153 32.1282 16.6508 31.8734 16.7742 31.7777C17.0564 31.5591 16.9182 31.3737 16.8249 31.1565C16.5381 30.4888 16.2561 29.819 15.9797 29.1678C15.343 29.4513 14.7068 29.7884 13.9836 29.6348C13.3719 29.5049 12.7717 29.308 12.1785 29.1051C11.4388 28.8521 10.7535 28.9194 10.1577 29.4278C9.97396 29.5846 9.8656 29.8506 9.76979 30.0859C9.62962 30.4301 9.52117 30.7887 9.41863 31.1467C9.27482 31.6489 8.88341 31.6117 8.50436 31.5734C8.35558 31.5583 8.21352 31.4693 8.07004 31.41C7.76286 31.283 7.45675 31.1534 7.09111 31C7.19181 31.2623 7.24983 31.4454 7.33379 31.6156C7.3652 31.6793 7.49153 31.7678 7.51613 31.7522C7.9019 31.5077 8.21557 31.7583 8.56209 31.8659C8.86891 31.9611 9.20079 32.0134 9.52171 32.0138C9.82904 32.0143 10.0222 31.8548 9.99804 31.4795C9.98304 31.2468 10.0526 30.9952 10.138 30.7729C10.2305 30.5325 10.3409 30.2683 10.5219 30.0987C11.0473 29.6063 11.711 29.5329 12.3857 29.6515C13.2376 29.8014 13.8558 30.2944 14.0863 31.1361C14.1794 31.476 14.1769 31.9412 14.013 32.234C13.5706 33.024 12.4661 33.2937 11.6469 32.8812C11.2057 32.659 10.6741 32.4999 10.1616 32.7256C9.98948 33.327 10.5865 33.4801 10.7747 33.8763C11.0449 33.5718 11.3739 33.3522 11.778 33.4524C12.3725 33.5999 12.9762 33.7558 13.5291 34.0104C13.9282 34.1941 14.3531 34.458 14.3791 35.0127C14.3812 35.0583 14.4492 35.1315 14.4954 35.1393C14.8828 35.2047 15.2723 35.2577 15.7494 35.3274C15.5878 35.0676 15.4746 34.8854 15.3229 34.6588ZM23.3555 27.6719C23.1582 27.3666 22.9777 27.0482 22.7576 26.7605C22.6158 26.5752 22.5733 26.2492 22.2264 26.2927C21.9449 26.328 21.7358 26.212 21.5426 26.0135C21.4599 25.9286 21.2936 25.8325 21.205 25.8619C20.7431 26.0149 20.294 26.2066 19.8753 26.3712C20.1046 27.5666 20.3151 28.6844 20.5393 29.7994C20.5604 29.9041 20.648 30.0248 20.7396 30.0796C20.9445 30.2023 21.1633 30.3391 21.3915 30.3754C21.6488 30.4163 21.9408 30.4073 22.1855 30.3244C22.7545 30.1317 23.3041 29.8815 23.8482 29.66C23.8825 29.516 23.8811 29.3521 23.956 29.2391C24.1783 28.9038 23.9841 28.6439 23.8322 28.3793C23.6998 28.1486 23.5409 27.9333 23.3555 27.6719ZM24.4689 19.9241C24.5265 19.7183 24.5841 19.5126 24.6478 19.2851C24.1916 18.8603 23.7183 18.4197 23.1673 17.9068C23.3451 18.6594 23.2712 19.2786 22.8637 19.8101C22.4494 20.3505 21.8093 20.467 21.1837 20.5849C21.4765 20.8232 21.7423 21.0558 22.0245 21.2663C23.1539 22.1088 24.2865 22.9471 25.4242 23.7782C25.5354 23.8594 25.6903 23.8805 25.8249 23.9296C25.8678 23.7804 25.9675 23.6218 25.9446 23.4836C25.7907 22.5548 25.6108 21.6304 25.4425 20.7216C24.756 20.6657 24.5784 20.5226 24.4689 19.9241ZM26.8374 23.9402C26.9162 24.0593 27.0266 24.1683 27.0675 24.2992C27.1791 24.6566 27.433 24.7839 27.7739 24.8027C27.8721 24.8081 27.9818 24.7875 28.0663 24.8246C28.324 24.9379 28.4083 24.8338 28.4049 24.5882C28.3908 23.5822 28.4609 22.5763 28.1912 21.5811C27.938 20.6464 27.7087 19.7092 27.2423 18.8254C26.845 19.0671 26.4661 19.2977 26.0874 19.5282C26.2688 19.9176 26.1542 20.1977 25.9343 20.479C25.8518 20.5845 25.8181 20.77 25.8384 20.9077C25.9372 21.5795 26.0428 22.2515 26.1847 22.9151C26.2681 23.305 26.1753 23.8324 26.8374 23.9402ZM23.2263 25.9992C23.0799 25.9673 22.9334 25.9354 22.7206 25.8891C22.7701 26.0598 22.777 26.1611 22.8248 26.2364C23.2215 26.8608 23.5977 27.5018 24.0427 28.0902C24.2033 28.3026 24.2204 28.6912 24.6518 28.6843C25.3599 28.673 25.688 29.1266 25.5337 29.8387C25.7867 30.0173 26.0406 30.1965 26.3824 30.4377C26.8364 29.5571 27.275 28.7064 27.728 27.8277C26.1895 27.2058 24.7338 26.6175 23.2263 25.9992ZM19.0015 31.5803C19.3293 31.4566 19.663 31.346 19.9825 31.2035C20.1303 31.1377 20.3751 30.9855 20.3612 30.9144C20.3074 30.6377 20.2418 30.2421 20.047 30.1351C19.1694 29.6527 18.2343 29.277 17.3447 28.8148C16.932 28.6003 16.6087 28.5446 16.2936 28.9785C16.5976 29.707 16.9057 30.455 17.2245 31.1982C17.2706 31.3058 17.349 31.4381 17.4459 31.4784C17.9287 31.6797 18.4136 31.9995 19.0015 31.5803ZM20.2355 33.2553C20.3096 33.0821 20.3849 32.9094 20.4575 32.7356C20.5234 32.5779 20.644 32.4168 20.6382 32.2611C20.6275 31.9755 20.5415 31.6927 20.4876 31.4122C19.8401 31.6404 19.1672 31.8708 18.5015 32.1205C18.4107 32.1545 18.3395 32.2767 18.2884 32.3736C18.2055 32.5309 18.1433 32.6996 18.0797 32.8663C18.0563 32.9276 18.0236 33.0109 18.0464 33.0605C18.3289 33.6765 18.615 34.291 18.9172 34.8974C18.9593 34.982 19.1016 35.0824 19.1817 35.0702C19.4769 35.0256 19.7676 34.9439 20.056 34.8623C20.2876 34.7968 20.5198 34.7258 20.7395 34.6293C20.8797 34.5677 21.0555 34.4821 21.1125 34.3592C21.2089 34.1514 21.0055 34.082 20.8481 34.0128C20.5375 33.8762 20.2785 33.6908 20.2355 33.2553ZM25.3522 16.2789C24.6242 16.6256 23.8963 16.9722 23.1372 17.3337C23.5365 17.7303 23.9299 18.1223 24.3246 18.5129C24.6387 18.8238 24.9005 19.2358 25.4545 19.0743C25.522 19.0546 25.6134 19.1376 25.6939 19.1381C25.8549 19.139 26.0421 19.1637 26.1719 19.0928C26.4872 18.9207 26.7759 18.6995 27.1392 18.4551C26.6887 17.767 26.2632 17.0944 25.807 16.4435C25.7333 16.3384 25.6521 16.0466 25.3522 16.2789ZM24.0537 25.2413C23.7391 25.32 23.4244 25.3987 23.1098 25.4774C23.1086 25.5057 23.1074 25.534 23.1063 25.5622C24.6555 26.2007 26.2048 26.8393 27.806 27.4992C27.9582 26.866 28.1148 26.2485 28.2524 25.6268C28.3182 25.3297 28.2039 25.1604 27.8686 25.17C27.714 25.1745 27.5446 25.1532 27.4055 25.0908C27.1832 24.991 27.0533 25.0688 26.8985 25.2255C26.4803 25.6492 26.3488 25.6334 25.8438 25.2638C25.6793 25.1434 25.4542 25.0363 25.2601 25.0416C24.8746 25.0521 24.4913 25.1449 24.0537 25.2413ZM23.7831 31.9476C23.1292 31.631 22.4889 31.2807 21.8171 31.0086C21.3018 30.7999 20.7924 31.2934 20.9185 31.8285C20.9625 32.0153 21.0269 32.1973 21.0853 32.3926C21.5064 32.3653 21.7857 32.6014 21.9107 32.9476C22.0311 33.2809 21.973 33.6246 21.6411 33.8702C21.5603 33.93 21.5446 34.0784 21.4989 34.1861C21.6241 34.1733 21.769 34.1973 21.8713 34.1419C22.8242 33.6267 23.7832 33.118 24.5963 32.3316C24.3359 32.2014 24.0878 32.0773 23.7831 31.9476ZM18.4726 28.9798C19.0061 29.2654 19.5305 29.5729 20.1563 29.7514C19.9349 28.6299 19.7279 27.5821 19.5137 26.4973C18.8225 26.7665 18.1824 27.0108 17.5479 27.269C17.4637 27.3033 17.3832 27.3964 17.3438 27.4821C17.2226 27.7455 17.1222 28.0186 17.0139 28.2875C17.4852 28.5183 17.9505 28.7462 18.4726 28.9798ZM18.0687 35.2792C18.2466 35.2312 18.4245 35.1832 18.6178 35.1309C18.3613 34.5853 18.1163 34.0877 17.893 33.5804C17.7684 33.2972 17.6472 33.0533 17.2667 33.1386C17.1964 33.1544 17.0932 33.1119 17.0321 33.0626C16.8587 32.9226 16.7087 32.9712 16.5525 33.0847C16.4544 33.1561 16.3569 33.231 16.2501 33.2872C15.8407 33.5028 15.4594 34.007 15.5809 34.342C15.725 34.7392 15.933 35.1434 16.3671 35.336C16.4104 35.3552 16.4592 35.3768 16.5044 35.3748C17.0048 35.3527 17.5049 35.3261 18.0687 35.2792ZM23.1079 31.2035C23.5932 31.4456 24.0789 31.6868 24.5636 31.9302C24.7454 32.0215 24.914 32.1024 25.0857 31.8957C25.4153 31.4989 25.7578 31.1129 26.1102 30.7049C25.9111 30.57 25.7141 30.4797 25.5773 30.3329C25.4068 30.1499 25.2595 30.1439 25.0693 30.2723C24.8136 30.4448 24.5808 30.4132 24.3302 30.2278C24.2013 30.1324 23.9865 30.041 23.8535 30.0835C23.3104 30.257 22.7839 30.4828 22.1851 30.7151C22.5287 30.8951 22.7942 31.0343 23.1079 31.2035ZM18.0219 12.4387C17.9856 12.4441 17.9494 12.4494 17.9131 12.4548C18.0103 12.5233 18.104 12.6441 18.2053 12.6509C18.5662 12.675 18.9296 12.6603 19.3203 12.6603C19.218 12.3731 19.1111 12.2224 18.7979 12.3316C18.5742 12.4096 18.3221 12.4057 18.0219 12.4387Z" fill="url(#paint0_linear_153_21)"/>
<path d="M31.5504 6.90596C32.6055 7.62864 33.4495 8.52368 34.1671 9.54422C34.9258 10.6233 35.4783 11.8011 35.8418 13.0693C36.0418 13.7671 36.0453 14.4731 35.8911 15.1741C35.8637 15.2989 35.6852 15.4432 35.5491 15.4821C34.8027 15.6951 34.1768 15.5769 33.904 14.5639C33.7528 14.0023 33.6225 13.435 33.484 12.87C33.2696 11.9958 32.8392 11.2277 32.3087 10.5148C31.7033 9.70119 30.9732 9.02675 30.111 8.47911C29.4202 8.0403 28.7038 7.67712 27.9248 7.44191C27.3824 7.27811 26.8315 7.14108 26.2816 7.00335C25.7123 6.86074 25.3886 6.40172 25.4346 5.7786C25.4634 5.38697 25.9665 4.95391 26.4775 5.00397C27.1602 5.07085 27.8415 5.20431 28.5086 5.36931C29.5253 5.62077 30.4229 6.15139 31.3126 6.68657C31.3953 6.73629 31.4565 6.82186 31.5504 6.90596Z" fill="url(#paint1_linear_153_21)"/>
<path d="M29.9153 13.1729C29.5851 12.7915 29.2823 12.4226 28.9625 12.0691C28.1357 11.1547 27.084 10.6417 25.9052 10.3478C25.5911 10.2695 25.284 10.1461 24.9898 10.0088C24.6984 9.87279 24.5 9.35585 24.5646 9.03687C24.7163 8.28705 24.9925 8.17929 25.5069 8.12722C26.4226 8.03452 27.2417 8.37196 28.0399 8.7856C28.9644 9.26471 29.7972 9.86308 30.5399 10.593C31.6246 11.659 32.3272 12.9422 32.7105 14.4077C32.796 14.7348 32.9005 15.0643 32.9259 15.3981C32.9618 15.8674 32.5675 16.3458 32.123 16.4539C31.6093 16.5789 31.203 16.41 30.9616 15.9172C30.8208 15.6297 30.7553 15.306 30.6409 15.0044C30.4111 14.3983 30.1709 13.7962 29.9153 13.1729Z" fill="url(#paint2_linear_153_21)"/>
<defs>
<linearGradient id="paint0_linear_153_21" x1="24.5903" y1="14.2587" x2="7.59293" y2="32.4997" gradientUnits="userSpaceOnUse">
<stop stop-color="#78D767"/>
<stop offset="1" stop-color="#43BC9A"/>
</linearGradient>
<linearGradient id="paint1_linear_153_21" x1="30.7151" y1="5" x2="30.7151" y2="15.5712" gradientUnits="userSpaceOnUse">
<stop stop-color="#43BC9A"/>
<stop offset="1" stop-color="#78D767"/>
</linearGradient>
<linearGradient id="paint2_linear_153_21" x1="29.1505" y1="8.04017" x2="29.1505" y2="18.4044" gradientUnits="userSpaceOnUse">
<stop stop-color="#43BC9A"/>
<stop offset="1" stop-color="#78D767"/>
</linearGradient>
</defs>
</svg>
