<svg width="40" height="40" viewBox="0 0 40 40" fill="none" xmlns="http://www.w3.org/2000/svg">
<path fill-rule="evenodd" clip-rule="evenodd" d="M17.981 34.9879C27.0099 34.9879 35.5966 26.8893 35.984 17.8331C36.4124 7.8193 28.1317 3.71528 22.1671 4.01624C15.3271 3.6332 4.00001 10.0355 4 22.2381C4 30.4734 10.84 35.3983 17.981 34.9879ZM20.4204 29.0612C26.5189 29.0612 32.3188 23.2808 32.5805 16.8169C32.8699 9.66951 27.3109 6.95506 23.2479 6.95506C18.6278 6.68167 10.9769 11.2513 10.9769 19.9609C10.9769 25.8389 15.597 29.3541 20.4204 29.0612Z" fill="#519548"/>
<path d="M30.8329 15.6089C30.6533 19.9979 26.6742 23.9229 22.4901 23.9229C19.1809 24.1218 16.0111 21.7349 16.0111 17.7437C16.0111 11.8298 21.2683 8.56391 24.4381 8.74955C27.2014 8.74955 31.0314 10.7557 30.8329 15.6089Z" fill="#86BC1E"/>
</svg>
